<svg width="20" height="20" viewBox="0 0 20 20" fill="none" xmlns="http://www.w3.org/2000/svg">
<path d="M18.748 6.95495H11.8234L9.67639 0.604797L7.52944 6.95495H0.604744L6.19893 10.886L4.05197 17.2362L9.67639 13.3051L15.2706 17.2362L13.1236 10.886L18.748 6.95495Z" fill="#586672"/>
<path d="M13.9703 6.13851L15.1798 2.69128L12.0047 4.86848L12.4583 6.13851H13.9703ZM8.43655 15.1194L9.67634 18.7481L10.9161 15.1194L9.67634 14.2728L8.43655 15.1194ZM15.331 10.3719L14.1819 11.1582L14.6657 12.6096H18.5666L15.331 10.3719ZM7.34795 4.86848L4.17287 2.69128L5.38243 6.13851H6.89437L7.34795 4.86848ZM4.02168 10.3719L0.786125 12.6096H4.68693L5.17076 11.1582L4.02168 10.3719Z" fill="#111827"/>
</svg>
