<svg width="102" height="28" viewBox="0 0 102 28" fill="none" xmlns="http://www.w3.org/2000/svg">
<path d="M28.8966 20V8.54956H31.3479V19.3388L29.9932 17.9357H36.6216V20H28.8966ZM36.9383 20V11.3557H39.3574V20H36.9383ZM36.8899 10.2913V8.35603H39.3897V10.2913H36.8899ZM42.9455 20L39.7845 11.3557H42.3165L44.3647 17.5648L46.3968 11.3557H48.9288L45.7517 20H42.9455ZM49.1693 20V11.3557H51.4594L51.54 13.8716L51.3626 13.8232C51.5024 12.9523 51.7497 12.3234 52.1045 11.9363C52.4593 11.5493 52.9485 11.3557 53.5721 11.3557H54.3623V13.3555H53.5721C53.1205 13.3555 52.7496 13.4147 52.4593 13.5329C52.169 13.6512 51.9486 13.8393 51.7981 14.0974C51.6583 14.3554 51.5884 14.7048 51.5884 15.1457V20H49.1693ZM58.4871 20.1935C57.6055 20.1935 56.8368 20.0108 56.1809 19.6452C55.5251 19.2689 55.0144 18.7421 54.6488 18.0647C54.2833 17.3874 54.1005 16.5917 54.1005 15.6779C54.1005 14.764 54.2833 13.9737 54.6488 13.3071C55.0144 12.6298 55.5251 12.103 56.1809 11.7267C56.8368 11.3503 57.6055 11.1622 58.4871 11.1622C59.3688 11.1622 60.1375 11.3503 60.7934 11.7267C61.4492 12.103 61.9599 12.6298 62.3255 13.3071C62.691 13.9737 62.8738 14.764 62.8738 15.6779C62.8738 16.5917 62.691 17.3874 62.3255 18.0647C61.9599 18.7421 61.4492 19.2689 60.7934 19.6452C60.1375 20.0108 59.3688 20.1935 58.4871 20.1935ZM58.4871 18.3389C59.0892 18.3389 59.5569 18.1077 59.8902 17.6454C60.2235 17.1723 60.3902 16.5165 60.3902 15.6779C60.3902 14.8392 60.2235 14.1888 59.8902 13.7264C59.5569 13.2534 59.0892 13.0168 58.4871 13.0168C57.8851 13.0168 57.4174 13.2534 57.0841 13.7264C56.7508 14.1888 56.5841 14.8392 56.5841 15.6779C56.5841 16.5165 56.7508 17.1723 57.0841 17.6454C57.4174 18.1077 57.8851 18.3389 58.4871 18.3389ZM68.392 20.258C67.4029 20.258 66.5535 20.0914 65.8439 19.7581C65.1343 19.4248 64.5806 18.9571 64.1828 18.355C63.7849 17.7529 63.5592 17.0433 63.5054 16.2262L65.9729 16.1133C66.0374 16.5649 66.1664 16.9519 66.36 17.2745C66.5642 17.5863 66.833 17.8228 67.1663 17.9841C67.5104 18.1454 67.9297 18.226 68.4243 18.226C68.8328 18.226 69.1769 18.1776 69.4564 18.0808C69.7467 17.9841 69.9671 17.8389 70.1176 17.6454C70.2682 17.4411 70.3434 17.1938 70.3434 16.9035C70.3434 16.6348 70.2789 16.4036 70.1499 16.2101C70.0209 16.0058 69.7736 15.823 69.408 15.6617C69.0425 15.4897 68.5049 15.3231 67.7953 15.1618C66.8169 14.936 66.0267 14.6833 65.4246 14.4038C64.8332 14.1243 64.4032 13.7748 64.1344 13.3555C63.8656 12.9255 63.7312 12.3879 63.7312 11.7428C63.7312 11.0547 63.8978 10.4526 64.2311 9.93651C64.5752 9.42044 65.0698 9.01725 65.7149 8.72696C66.36 8.43667 67.1287 8.29152 68.0211 8.29152C68.9672 8.29152 69.7682 8.45817 70.4241 8.79147C71.0799 9.12477 71.5906 9.58171 71.9562 10.1623C72.3325 10.7429 72.5582 11.4095 72.6335 12.1621L70.1821 12.2911C70.1499 11.8933 70.0424 11.5493 69.8596 11.259C69.6768 10.9579 69.4295 10.7268 69.1177 10.5655C68.8059 10.4042 68.4296 10.3236 67.9888 10.3236C67.4297 10.3236 66.9889 10.4472 66.6664 10.6945C66.3546 10.9418 66.1987 11.2643 66.1987 11.6621C66.1987 11.9417 66.2686 12.1782 66.4083 12.3717C66.5589 12.5545 66.8008 12.7158 67.1341 12.8556C67.4781 12.9953 67.9619 13.1297 68.5855 13.2588C69.6499 13.4738 70.4886 13.748 71.1014 14.0813C71.725 14.4038 72.1658 14.7909 72.4238 15.2424C72.6819 15.694 72.8109 16.2101 72.8109 16.7907C72.8109 17.5003 72.6281 18.1185 72.2626 18.6453C71.9078 19.1614 71.3971 19.5592 70.7305 19.8387C70.0746 20.1183 69.2951 20.258 68.392 20.258ZM76.5136 20.1935C75.6213 20.1935 74.8902 19.9892 74.3203 19.5807C73.7612 19.1614 73.4817 18.5808 73.4817 17.8389C73.4817 17.0756 73.7182 16.4896 74.1913 16.081C74.6751 15.6617 75.3847 15.3553 76.3201 15.1618L79.1102 14.6135C79.1102 14.0544 78.9811 13.6351 78.7231 13.3555C78.4758 13.0652 78.1156 12.9201 77.6426 12.9201C77.1802 12.9201 76.8201 13.0276 76.562 13.2426C76.304 13.4469 76.1373 13.7533 76.0621 14.1619L73.6268 14.049C73.7881 13.1029 74.2128 12.3879 74.9009 11.9041C75.5998 11.4095 76.5136 11.1622 77.6426 11.1622C78.9328 11.1622 79.9004 11.4686 80.5455 12.0815C81.2013 12.6943 81.5293 13.5921 81.5293 14.7747V17.726C81.5293 17.9733 81.5669 18.14 81.6422 18.226C81.7282 18.3012 81.8518 18.3389 82.0131 18.3389H82.255V20C82.1797 20.0215 82.0561 20.043 81.8841 20.0645C81.7228 20.086 81.5615 20.0968 81.4002 20.0968C81.0562 20.0968 80.7336 20.0376 80.4326 19.9194C80.1423 19.8011 79.9058 19.6022 79.723 19.3226C79.5402 19.0324 79.4488 18.6238 79.4488 18.097L79.6585 18.2582C79.551 18.6453 79.3574 18.984 79.0779 19.2743C78.8091 19.5646 78.4543 19.7903 78.0135 19.9516C77.5834 20.1129 77.0835 20.1935 76.5136 20.1935ZM77.0942 18.5324C77.492 18.5324 77.8415 18.4571 78.1425 18.3066C78.4436 18.1454 78.6801 17.9142 78.8521 17.6131C79.0241 17.3121 79.1102 16.9573 79.1102 16.5487V16.1294L77.1426 16.5487C76.7556 16.624 76.4599 16.753 76.2556 16.9358C76.0621 17.1078 75.9653 17.3336 75.9653 17.6131C75.9653 17.9034 76.0621 18.1292 76.2556 18.2905C76.4491 18.4518 76.7287 18.5324 77.0942 18.5324ZM85.2514 20.1935C84.359 20.1935 83.6279 19.9892 83.0581 19.5807C82.499 19.1614 82.2195 18.5808 82.2195 17.8389C82.2195 17.0756 82.456 16.4896 82.9291 16.081C83.4129 15.6617 84.1225 15.3553 85.0579 15.1618L87.8479 14.6135C87.8479 14.0544 87.7189 13.6351 87.4609 13.3555C87.2136 13.0652 86.8534 12.9201 86.3803 12.9201C85.918 12.9201 85.5578 13.0276 85.2998 13.2426C85.0418 13.4469 84.8751 13.7533 84.7998 14.1619L82.3646 14.049C82.5259 13.1029 82.9506 12.3879 83.6387 11.9041C84.3375 11.4095 85.2514 11.1622 86.3803 11.1622C87.6705 11.1622 88.6382 11.4686 89.2833 12.0815C89.9391 12.6943 90.267 13.5921 90.267 14.7747V17.726C90.267 17.9733 90.3047 18.14 90.3799 18.226C90.4659 18.3012 90.5896 18.3389 90.7509 18.3389H90.9928V20C90.9175 20.0215 90.7939 20.043 90.6218 20.0645C90.4606 20.086 90.2993 20.0968 90.138 20.0968C89.794 20.0968 89.4714 20.0376 89.1704 19.9194C88.8801 19.8011 88.6435 19.6022 88.4608 19.3226C88.278 19.0324 88.1866 18.6238 88.1866 18.097L88.3963 18.2582C88.2887 18.6453 88.0952 18.984 87.8157 19.2743C87.5469 19.5646 87.1921 19.7903 86.7513 19.9516C86.3212 20.1129 85.8212 20.1935 85.2514 20.1935ZM85.832 18.5324C86.2298 18.5324 86.5792 18.4571 86.8803 18.3066C87.1813 18.1454 87.4179 17.9142 87.5899 17.6131C87.7619 17.3121 87.8479 16.9573 87.8479 16.5487V16.1294L85.8804 16.5487C85.4933 16.624 85.1977 16.753 84.9934 16.9358C84.7998 17.1078 84.7031 17.3336 84.7031 17.6131C84.7031 17.9034 84.7998 18.1292 84.9934 18.2905C85.1869 18.4518 85.4664 18.5324 85.832 18.5324ZM96.1172 20.258C95.1281 20.258 94.2787 20.0914 93.5691 19.7581C92.8595 19.4248 92.3058 18.9571 91.908 18.355C91.5102 17.7529 91.2844 17.0433 91.2306 16.2262L93.6981 16.1133C93.7626 16.5649 93.8917 16.9519 94.0852 17.2745C94.2895 17.5863 94.5583 17.8228 94.8916 17.9841C95.2356 18.1454 95.6549 18.226 96.1495 18.226C96.5581 18.226 96.9021 18.1776 97.1816 18.0808C97.4719 17.9841 97.6923 17.8389 97.8429 17.6454C97.9934 17.4411 98.0687 17.1938 98.0687 16.9035C98.0687 16.6348 98.0041 16.4036 97.8751 16.2101C97.7461 16.0058 97.4988 15.823 97.1333 15.6617C96.7677 15.4897 96.2301 15.3231 95.5205 15.1618C94.5421 14.936 93.7519 14.6833 93.1498 14.4038C92.5585 14.1243 92.1284 13.7748 91.8596 13.3555C91.5908 12.9255 91.4564 12.3879 91.4564 11.7428C91.4564 11.0547 91.6231 10.4526 91.9564 9.93651C92.3004 9.42044 92.795 9.01725 93.4401 8.72696C94.0852 8.43667 94.8539 8.29152 95.7463 8.29152C96.6924 8.29152 97.4934 8.45817 98.1493 8.79147C98.8051 9.12477 99.3158 9.58171 99.6814 10.1623C100.058 10.7429 100.283 11.4095 100.359 12.1621L97.9074 12.2911C97.8751 11.8933 97.7676 11.5493 97.5848 11.259C97.4021 10.9579 97.1548 10.7268 96.843 10.5655C96.5312 10.4042 96.1549 10.3236 95.7141 10.3236C95.155 10.3236 94.7142 10.4472 94.3916 10.6945C94.0798 10.9418 93.9239 11.2643 93.9239 11.6621C93.9239 11.9417 93.9938 12.1782 94.1336 12.3717C94.2841 12.5545 94.526 12.7158 94.8593 12.8556C95.2034 12.9953 95.6872 13.1297 96.3108 13.2588C97.3752 13.4738 98.2138 13.748 98.8266 14.0813C99.4502 14.4038 99.891 14.7909 100.149 15.2424C100.407 15.694 100.536 16.2101 100.536 16.7907C100.536 17.5003 100.353 18.1185 99.9878 18.6453C99.633 19.1614 99.1223 19.5592 98.4557 19.8387C97.7999 20.1183 97.0204 20.258 96.1172 20.258Z" fill="black"/>
<g clip-path="url(#clip0_6407_794)">
<path d="M18.748 11.1514H11.8234L9.67639 5.83228L7.52944 11.1514H0.604744L6.19893 14.4442L4.05197 19.7633L9.67639 16.4705L15.2706 19.7633L13.1236 14.4442L18.748 11.1514Z" fill="#586672"/>
<path d="M13.9703 10.4675L15.1798 7.58002L12.0047 9.40372L12.4583 10.4675H13.9703ZM8.43655 17.9903L9.67634 21.0298L10.9161 17.9903L9.67634 17.2811L8.43655 17.9903ZM15.331 14.0136L14.1819 14.6722L14.6657 15.888H18.5666L15.331 14.0136ZM7.34795 9.40372L4.17287 7.58002L5.38243 10.4675H6.89437L7.34795 9.40372ZM4.02168 14.0136L0.786125 15.888H4.68693L5.17076 14.6722L4.02168 14.0136Z" fill="#111827"/>
</g>
<defs>
<clipPath id="clip0_6407_794">
<rect width="19.3529" height="16.2107" fill="white" transform="translate(0 5.32568)"/>
</clipPath>
</defs>
</svg>
